# xmcd
#
# Track frame offsets:
#       150
#       16117
#       33555
#       49825
#       65265
#       79882
#       96930
#       113787
#       128965
#       147567
#       163967
#       179147
#       195115
#       212557
#
# Disc length: 3048 seconds
#
# Revision: 0
# Processed by: cddbd v1.5.1PL0 Copyright (c) Steve Scherf et al.
# Submitted via: WhereIsIt 3.62
#
DISCID=c80be60e
DTITLE=최유나 - 8집 - 2005 최유나
DYEAR=1900
DGENRE=
TTITLE0=느낌
TTITLE1=어머니
TTITLE2=반지
TTITLE3=초대
TTITLE4=와인 글라스
TTITLE5=삼인칭
TTITLE6=카페에 앉아 (진실)
TTITLE7=밤차로 가지 말아요
TTITLE8=숨겨진 소설
TTITLE9=내가 사랑했던 사람
TTITLE10=사할린에 보내는 편지
TTITLE11=느낌 (MR)
TTITLE12=어머니 (MR)
TTITLE13=반지 (MR)
EXTD=
EXTT0=
EXTT1=
EXTT2=
EXTT3=
EXTT4=
EXTT5=
EXTT6=
EXTT7=
EXTT8=
EXTT9=
EXTT10=
EXTT11=
EXTT12=
EXTT13=
PLAYORDER=
